<?xml version="1.0" standalone="no"?><!DOCTYPE svg PUBLIC "-//W3C//DTD SVG 1.1//EN" "http://www.w3.org/Graphics/SVG/1.1/DTD/svg11.dtd"><svg t="1731880141289" class="icon" viewBox="0 0 1024 1024" version="1.1" xmlns="http://www.w3.org/2000/svg" p-id="5336" xmlns:xlink="http://www.w3.org/1999/xlink" width="200" height="200"><path d="M772.655 1003.055c-18.619 0-34.91-2.328-51.2-9.31-18.619-4.654-186.182-55.854-414.255-281.6C88.436 493.382 32.582 318.836 27.927 297.891c-11.636-25.6-13.963-55.855-6.982-88.436 6.982-30.255 20.946-60.51 41.891-79.128l86.11-86.109c20.945-20.945 46.545-30.254 72.145-30.254 30.254 0 60.509 13.963 81.454 41.89l125.673 160.582c20.946 27.928 23.273 72.146 6.982 102.4L372.364 418.91c4.654 18.618 25.6 67.491 93.09 137.31 74.473 69.817 121.019 88.436 137.31 93.09l102.4-60.509c11.636-6.982 27.927-11.636 44.218-11.636 20.945 0 41.89 6.981 55.854 16.29l160.582 125.673c23.273 18.618 39.564 46.546 39.564 74.473 2.327 30.255-9.31 58.182-30.255 79.127l-86.109 86.11c-25.6 27.927-72.145 44.218-116.363 44.218zM221.09 67.49" p-id="5337" fill="#ffffff"></path></svg>